<svg width="100%" height="100%" viewBox="0 0 416 280" fill="none" xmlns="http://www.w3.org/2000/svg">
<path d="M129.8 154.4C130.067 153.067 130.333 151.733 130.6 150.4C130.867 149.067 131 147.6 131 146C131 141.2 130.067 136.8 128.2 132.8C126.6 128.533 123.267 126.4 118.2 126.4C113.667 126.4 109.133 128.4 104.6 132.4C100.067 136.133 97.8 141.2 97.8 147.6C97.8 151.867 98.8667 155.333 101 158C103.4 160.4 106.467 162.4 110.2 164C113.933 165.6 118.067 166.933 122.6 168C127.4 169.067 132.067 170.133 136.6 171.2C143 172.8 149 174.8 154.6 177.2C160.467 179.333 165.667 182.267 170.2 186C174.733 189.733 178.333 194.4 181 200C183.667 205.333 185 212 185 220C185 231.2 182.333 240.667 177 248.4C171.933 255.867 164.733 262 155.4 266.8C146.333 271.333 135.533 274.533 123 276.4C110.733 278.267 97.5333 279.2 83.4 279.2C61.8 279.2 43.9333 277.6 29.8 274.4C15.6667 271.2 5.8 268.133 0.2 265.2L8.6 225.2H62.6C62.3333 226.533 62.2 227.867 62.2 229.2C62.2 230.267 62.2 231.467 62.2 232.8C62.2 238.933 63.5333 243.867 66.2 247.6C69.1333 251.067 74.0667 252.8 81 252.8C88.7333 252.8 94.2 250.667 97.4 246.4C100.867 241.867 102.6 237.733 102.6 234C102.6 230.267 101.133 227.067 98.2 224.4C95.5333 221.467 92.0667 219.067 87.8 217.2C83.5333 215.067 78.7333 213.333 73.4 212C68.3333 210.4 63.4 208.933 58.6 207.6C55.1333 206.8 51.1333 205.467 46.6 203.6C42.3333 201.733 38.2 199.067 34.2 195.6C30.2 192.133 26.8667 187.733 24.2 182.4C21.5333 176.8 20.2 169.867 20.2 161.6C20.2 149.867 23 140.133 28.6 132.4C34.4667 124.4 41.9333 118 51 113.2C60.3333 108.4 70.7333 104.933 82.2 102.8C93.9333 100.667 105.667 99.6 117.4 99.6C132.067 99.6 145.933 100.933 159 103.6C172.067 106.267 182.733 109.733 191 114L181.8 154.4H129.8ZM217.988 104H248.788L252.388 87.6C255.854 71.6 260.921 58.1333 267.588 47.2C274.254 36 282.121 26.9333 291.188 20C300.521 13.0667 311.054 8.13332 322.788 5.19998C334.521 1.99999 347.054 0.399996 360.388 0.399996C368.654 0.399996 377.454 0.933322 386.788 1.99998C396.121 3.06664 405.854 4.79998 415.988 7.19998L409.588 39.2C403.721 38.4 397.454 37.8667 390.788 37.6C384.121 37.0667 378.788 36.8 374.788 36.8C369.454 36.8 364.788 37.2 360.788 38C357.054 38.8 353.721 40.4 350.788 42.8C347.854 44.9333 345.321 48 343.188 52C341.054 56 339.321 61.3333 337.988 68L330.388 104H372.388L367.188 130.8H324.788L293.988 276H212.387L243.188 130.8H211.988L217.988 104Z" fill="url(#paint0_radial_1_19)"/>
<defs>
<radialGradient id="paint0_radial_1_19" cx="0" cy="0" r="1" gradientUnits="userSpaceOnUse" gradientTransform="translate(184 138) rotate(90) scale(252 177)">
<stop stop-color="#E2E6BA"/>
<stop offset="1" stop-color="#A7B5A0"/>
</radialGradient>
</defs>
</svg>
