<?xml version="1.0" standalone="no"?>
<!DOCTYPE svg PUBLIC "-//W3C//DTD SVG 20010904//EN"
 "http://www.w3.org/TR/2001/REC-SVG-20010904/DTD/svg10.dtd">
<svg version="1.0" xmlns="http://www.w3.org/2000/svg"
 width="400.000000pt" height="400.000000pt" viewBox="0 0 400.000000 400.000000"
 preserveAspectRatio="xMidYMid meet">

<g transform="translate(0.000000,400.000000) scale(0.100000,-0.100000)"
fill="#000000" stroke="none">
<path d="M350 3990 c0 -5 5 -10 10 -10 6 0 10 5 10 10 0 6 -4 10 -10 10 -5 0
-10 -4 -10 -10z"/>
<path d="M442 3978 c-1 -13 -4 -38 -8 -55 -7 -35 -1 -39 43 -27 15 4 24 18 32
49 6 24 11 46 11 49 0 3 -18 6 -39 6 -34 0 -39 -3 -39 -22z"/>
<path d="M560 3991 c0 -5 7 -25 15 -44 21 -50 19 -57 -15 -57 -33 0 -39 -13
-12 -30 13 -8 5 -10 -38 -9 -86 1 -150 -5 -150 -13 0 -4 -4 -8 -10 -8 -5 0
-10 8 -10 18 0 13 12 22 40 31 22 6 40 16 40 21 0 9 -31 15 -54 11 -4 -1 -15
4 -24 11 -13 11 -15 10 -9 -4 9 -24 -10 -32 -36 -15 -29 18 -76 27 -84 15 -3
-6 1 -15 8 -20 11 -7 11 -11 1 -15 -43 -17 -55 -71 -24 -110 29 -37 176 -129
233 -146 158 -47 233 -58 487 -71 l93 -5 -2 144 c0 96 -5 147 -13 154 -6 5
-65 13 -131 16 -66 4 -121 11 -123 16 -5 14 -32 11 -32 -3 0 -8 -17 -14 -48
-15 -40 -1 -45 0 -29 11 23 18 22 35 -3 29 -17 -4 -20 0 -20 23 0 49 -11 74
-31 74 -11 0 -19 -4 -19 -9z m-320 -149 c0 -10 -3 -21 -6 -25 -9 -9 -36 21
-29 33 10 17 35 11 35 -8z m563 -114 c-3 -16 -12 -28 -19 -28 -17 0 -17 10 -4
46 13 34 31 20 23 -18z"/>
<path d="M1670 3985 c0 -8 5 -15 10 -15 6 0 10 7 10 15 0 8 -4 15 -10 15 -5 0
-10 -7 -10 -15z"/>
<path d="M3057 3980 c-3 -13 -1 -17 9 -13 14 5 16 0 18 -51 0 -16 7 -31 14
-33 7 -3 10 1 6 10 -3 8 -1 18 4 21 20 12 4 -46 -17 -60 -26 -19 -27 -31 -1
-39 27 -9 25 -23 -5 -31 -29 -7 -32 -19 -9 -32 11 -6 13 -12 6 -16 -8 -5 -8
-15 -2 -32 12 -31 6 -44 -22 -44 -13 0 -18 -5 -15 -14 9 -22 -5 -28 -24 -10
-16 14 -18 14 -23 -4 -4 -11 -15 -27 -26 -37 -22 -20 -26 -50 -9 -61 14 -8 59
16 59 32 0 7 9 10 23 7 17 -4 19 -2 7 6 -8 5 -11 13 -7 17 3 4 14 1 23 -7 13
-11 15 -11 14 2 -5 30 0 41 16 35 12 -5 14 -1 10 17 -3 12 -3 16 0 10 3 -7 12
-13 20 -13 8 0 14 -6 14 -13 0 -17 -29 -56 -30 -39 0 6 -5 12 -11 12 -5 0 -7
-5 -4 -10 3 -6 -1 -13 -9 -16 -23 -9 -20 -24 4 -24 11 0 20 -7 20 -15 0 -9 -9
-15 -21 -15 -18 0 -20 -4 -14 -27 3 -15 12 -32 18 -36 9 -6 9 -10 0 -14 -7 -2
-13 -11 -13 -18 0 -7 -12 -18 -27 -23 -16 -6 -22 -11 -15 -11 6 -1 12 -7 12
-15 0 -16 30 -26 78 -26 18 0 31 -4 28 -8 -2 -4 -2 -12 2 -18 9 -13 102 -34
160 -35 26 -1 58 -5 72 -10 15 -5 -29 -6 -110 -4 -136 5 -143 2 -60 -21 l45
-12 -50 -1 c-27 0 -144 8 -260 19 -115 11 -217 19 -225 19 -8 0 30 -11 85 -24
55 -13 132 -32 170 -42 69 -18 70 -19 68 -50 -2 -25 1 -32 22 -37 27 -7 25
-35 -4 -37 -9 -1 0 -5 19 -11 19 -5 125 -11 235 -14 l200 -4 6 -274 c5 -243 8
-276 25 -305 16 -28 17 -33 4 -41 -10 -6 -15 -27 -16 -57 -1 -26 -5 -205 -8
-398 -4 -192 -10 -361 -13 -375 -3 -14 -5 -44 -4 -67 2 -34 -1 -43 -14 -43 -9
0 -15 -6 -12 -12 2 -7 10 -12 16 -10 19 4 12 -15 -14 -44 -17 -18 -22 -30 -14
-34 7 -5 9 -30 5 -76 -3 -38 -5 -79 -6 -91 0 -13 -6 -23 -14 -23 -7 0 -19 -6
-25 -14 -9 -11 -8 -17 4 -29 19 -19 19 -22 -1 -41 -8 -9 -12 -21 -8 -27 4 -8
9 -7 15 2 12 19 10 -50 -2 -76 -8 -17 -8 -15 -4 8 3 15 1 27 -4 27 -5 0 -11
10 -14 23 -3 12 -12 48 -20 79 -9 36 -11 58 -4 61 5 1 2 10 -7 19 -9 9 -16 26
-16 37 0 12 -5 19 -12 16 -8 -3 -26 24 -47 66 -36 76 -97 147 -147 172 -17 9
-36 23 -43 31 -8 9 -21 16 -31 16 -10 0 -23 7 -30 14 -6 8 -33 23 -58 33 -64
24 -76 37 -113 123 -38 91 -98 195 -133 233 -14 15 -26 39 -26 52 0 13 -11 44
-24 68 -14 24 -24 57 -24 73 1 17 -4 40 -11 52 -8 15 -11 73 -11 170 1 81 -1
176 -5 212 -9 93 -44 306 -54 333 -5 12 -18 56 -30 97 -12 41 -27 93 -34 114
-10 36 -9 40 11 54 27 17 29 36 4 28 -14 -5 -22 3 -36 35 -10 22 -16 41 -15
43 12 7 61 26 69 26 6 0 10 -11 10 -25 0 -14 4 -25 9 -25 15 0 23 18 11 25 -9
6 -7 26 7 77 3 13 0 16 -11 12 -24 -9 -39 5 -25 22 10 12 14 12 20 2 6 -8 9
-1 9 20 0 20 -4 31 -10 27 -5 -3 -10 1 -10 9 0 9 -4 16 -9 16 -10 0 -25 -30
-22 -44 1 -5 -5 -6 -13 -3 -8 3 -20 -1 -26 -9 -10 -11 -9 -14 8 -14 14 0 24
-10 31 -32 6 -17 8 -34 5 -37 -4 -3 -9 0 -11 7 -8 21 -43 14 -43 -9 0 -20 0
-20 -29 3 -28 23 -71 78 -71 91 0 4 9 7 21 7 12 0 17 4 13 11 -3 6 -17 9 -30
6 -13 -2 -29 2 -35 9 -6 8 -18 14 -25 14 -23 0 -16 27 9 35 17 6 10 9 -32 14
-66 7 -75 25 -27 48 27 13 35 21 30 35 -3 12 0 18 9 18 9 0 17 6 20 13 9 26
16 -1 8 -30 -11 -38 3 -57 29 -41 15 9 15 15 4 47 -7 20 -19 37 -28 39 -20 4
-21 21 -1 28 18 7 20 22 3 21 -47 -1 -50 2 -43 44 6 36 5 40 -11 37 -9 -1 -19
-9 -22 -16 -2 -8 2 -10 13 -5 14 5 16 2 10 -18 -7 -23 -16 -33 -40 -43 -5 -3
-2 -11 8 -19 9 -8 17 -18 17 -23 0 -4 -5 -3 -12 4 -20 20 -27 14 -23 -18 2
-16 0 -30 -5 -30 -12 0 -23 37 -15 50 3 5 1 10 -4 10 -6 0 -11 -9 -11 -21 0
-11 -4 -17 -10 -14 -24 15 -28 -8 -5 -27 23 -18 25 -23 12 -35 -12 -13 -20
-12 -61 7 -25 12 -46 26 -46 31 0 5 -5 9 -10 9 -6 0 -31 10 -57 22 l-46 22 34
12 c19 7 48 13 64 13 56 2 76 12 82 42 3 16 10 26 15 23 5 -3 6 5 3 19 -5 17
-2 26 9 30 17 7 31 -8 22 -22 -4 -5 3 -7 14 -4 16 4 20 14 21 52 1 25 1 49 0
54 -2 13 17 7 23 -8 9 -26 25 -16 28 17 2 23 9 34 21 36 16 3 18 -1 12 -26 -4
-22 -2 -31 9 -35 13 -5 16 1 16 26 0 59 -16 70 -90 59 -132 -20 -249 -42 -275
-52 -14 -5 -37 -10 -51 -10 -13 0 -24 -5 -24 -11 0 -7 -11 -9 -30 -5 -17 3
-30 1 -30 -4 0 -6 -8 -11 -17 -11 -10 -1 -4 -4 12 -8 25 -5 32 -13 41 -51 7
-25 15 -52 19 -61 10 -25 -5 -29 -104 -32 -86 -3 -91 -2 -92 18 -1 17 -2 16
-8 -5 -5 -19 -14 -26 -39 -28 -18 -2 -32 -8 -32 -13 0 -6 8 -9 18 -8 29 2 58
-2 45 -8 -27 -10 -11 -21 22 -16 27 4 35 2 33 -8 -2 -7 7 -18 19 -23 12 -6 22
-17 21 -26 -3 -35 3 -49 23 -55 15 -5 18 -10 10 -18 -20 -20 -12 -46 15 -53
16 -4 21 -9 15 -14 -16 -9 2 -55 26 -69 17 -10 17 -10 -1 -11 -11 0 -28 8 -38
17 -11 10 -22 13 -28 7 -5 -5 11 -19 42 -34 29 -14 62 -35 75 -46 23 -22 78
-38 93 -29 5 3 28 -1 52 -9 24 -7 63 -17 87 -20 95 -14 194 -83 236 -163 11
-21 24 -41 30 -45 5 -4 7 -10 3 -13 -3 -4 -16 3 -27 14 -34 34 -63 35 -123 7
-30 -14 -63 -26 -72 -26 -9 0 -15 -4 -11 -9 3 -5 -4 -12 -15 -16 -11 -3 -25
-15 -30 -26 -6 -10 -16 -19 -22 -19 -24 0 -55 -40 -50 -66 6 -32 19 -39 40
-23 16 13 16 12 0 -6 -23 -28 -34 -111 -18 -141 23 -41 77 -66 151 -68 79 -1
127 21 166 76 14 21 30 38 34 38 5 0 9 11 9 24 0 31 -20 86 -31 86 -5 0 -18 9
-29 20 -11 11 -33 20 -49 20 -16 0 -34 6 -40 14 -18 22 51 58 103 54 47 -3 63
-19 93 -93 29 -74 40 -117 63 -255 12 -69 25 -149 30 -179 15 -80 12 -191 -6
-263 -18 -76 -131 -308 -174 -361 -36 -42 -132 -91 -197 -100 -37 -4 -44 -2
-58 20 -9 14 -19 22 -22 19 -9 -8 -44 20 -58 46 -6 13 -17 22 -24 20 -19 -4
-41 17 -34 33 3 8 -2 22 -11 31 -13 12 -14 19 -5 30 10 12 13 12 23 0 6 -8 22
-13 36 -12 14 1 37 -1 51 -5 15 -4 32 -3 40 1 7 5 22 4 32 -2 13 -7 22 -7 29
0 6 6 16 8 23 5 7 -2 16 4 19 15 4 11 22 32 40 46 18 14 49 49 69 78 19 29 45
61 56 70 25 21 26 31 5 49 -13 10 -20 10 -43 -4 -37 -22 -146 -11 -174 18 -21
21 -10 55 17 55 32 0 67 40 59 68 -3 12 -12 22 -19 22 -8 0 -14 7 -14 15 0 8
-8 15 -19 15 -10 0 -24 -7 -31 -15 -7 -9 -29 -15 -52 -15 -21 0 -52 -7 -67
-15 -16 -8 -31 -12 -34 -9 -3 4 -19 -3 -35 -15 -16 -11 -32 -18 -36 -14 -11
12 -6 64 9 87 9 13 18 36 21 51 4 23 2 26 -18 23 -34 -5 -50 -44 -50 -121 1
-63 3 -70 34 -100 18 -18 42 -37 53 -43 11 -6 24 -20 30 -32 5 -12 13 -22 17
-22 5 0 8 -6 8 -13 0 -12 -105 -67 -128 -67 -10 0 -20 -40 -37 -142 -7 -42
-24 -49 -53 -20 -10 9 -34 26 -53 36 -46 26 -70 47 -63 57 8 14 -20 11 -36 -3
-8 -7 -12 -9 -8 -4 11 13 -11 48 -26 43 -20 -8 -39 64 -26 98 15 40 12 63 -9
70 -11 3 -22 19 -26 35 -4 17 -11 30 -15 30 -5 0 -7 7 -4 15 4 8 1 15 -6 15
-7 0 -10 7 -6 18 6 16 5 16 -8 0 -16 -22 -42 -23 -50 -3 -3 8 -12 15 -21 15
-19 0 -33 35 -27 67 3 17 13 26 33 30 16 3 29 9 29 14 0 13 64 11 77 -2 11
-11 63 -2 63 11 0 4 31 24 68 43 37 20 85 50 107 67 27 21 46 29 64 26 14 -2
26 -5 26 -6 0 -2 13 -3 28 -4 28 -2 28 -2 22 49 -8 62 -40 135 -60 135 -8 0
-12 6 -9 13 2 7 -6 29 -19 48 -18 27 -32 36 -67 42 -96 16 -219 -1 -278 -39
-12 -8 -27 -12 -32 -9 -5 3 -24 -8 -43 -25 l-34 -30 0 24 c0 14 6 27 13 30 8
3 14 15 14 27 0 13 7 31 17 41 15 17 15 18 -1 18 -15 0 -16 6 -11 33 9 40 14
49 25 42 11 -7 33 22 26 34 -3 5 0 11 8 14 16 6 40 55 50 99 3 15 13 34 22 43
9 9 19 37 22 62 4 37 1 49 -13 59 -18 13 -18 15 6 40 23 26 23 26 2 13 -13 -8
-23 -18 -23 -22 0 -5 -10 -5 -22 -1 -13 4 -32 7 -43 6 -16 -1 -13 4 13 24 17
14 32 34 32 45 0 10 6 19 13 19 9 0 13 16 12 55 0 45 -3 55 -17 55 -10 0 -22
-9 -27 -19 -16 -29 -93 -117 -126 -143 l-30 -23 26 35 c15 19 32 46 39 58 l12
24 -31 -23 c-17 -12 -28 -26 -25 -31 3 -4 0 -8 -6 -8 -6 0 -13 7 -16 15 -4 8
-10 12 -15 9 -19 -11 -8 11 19 39 23 25 24 28 5 18 -41 -21 -73 11 -52 51 11
21 11 21 -17 -1 l-29 -23 -3 21 c-3 19 -32 31 -32 13 0 -4 -10 -13 -21 -21
-20 -12 -21 -11 -14 6 4 10 7 25 7 35 0 9 8 24 19 34 24 22 24 34 1 27 -13 -3
-23 8 -41 44 -47 99 -60 118 -83 121 -13 2 -27 8 -32 13 -6 5 -17 9 -25 9 -9
0 -28 6 -42 14 -14 7 -37 16 -52 20 l-27 6 0 -137 c0 -76 4 -144 9 -152 5 -8
38 -16 87 -20 l79 -6 -2 -33 c-1 -22 -16 -52 -42 -86 -23 -29 -41 -56 -41 -60
0 -4 -9 -26 -19 -49 -11 -24 -23 -55 -26 -69 -11 -43 -24 -48 -100 -37 -115
15 -174 30 -182 43 -5 8 -81 22 -213 39 l-205 25 -42 -21 c-23 -12 -107 -71
-187 -132 l-145 -110 -1 -1137 0 -1138 26 0 c15 0 37 12 56 33 l31 32 -26 -45
c-21 -35 -33 -46 -56 -48 l-30 -3 -1 -370 0 -369 268 0 269 0 12 53 c10 48 19
117 24 192 1 17 -1 44 -4 62 -4 19 -2 34 4 36 7 2 5 31 -7 88 -78 365 -99 572
-72 685 21 84 44 142 68 170 19 21 19 22 -8 43 -16 13 -41 21 -64 21 -33 0
-44 -7 -79 -46 -22 -25 -43 -59 -46 -75 -4 -16 -11 -29 -16 -29 -14 0 -11 12
16 67 29 61 68 100 109 109 17 4 37 10 46 14 74 37 185 71 240 75 40 2 66 9
69 16 7 21 34 46 58 53 23 7 23 7 16 -70 -6 -74 -5 -76 14 -70 19 6 22 1 28
-56 4 -34 14 -68 21 -76 8 -7 14 -21 14 -30 1 -18 29 -74 30 -58 0 19 41 -29
61 -73 12 -25 25 -54 30 -63 14 -27 11 -41 -7 -34 -15 6 -15 4 0 -18 9 -14 16
-34 16 -45 0 -24 10 -51 19 -51 3 0 6 20 6 44 0 25 -3 42 -7 40 -5 -3 -8 2 -8
10 0 9 4 16 9 16 13 0 31 -57 31 -97 0 -20 4 -32 10 -28 6 4 10 -15 10 -50 0
-40 -4 -57 -15 -61 -8 -4 -15 -12 -15 -18 0 -17 -40 -52 -67 -61 -13 -3 -23
-11 -23 -16 0 -5 -5 -9 -10 -9 -6 0 -36 -16 -66 -35 -30 -19 -59 -35 -64 -35
-14 0 -12 75 4 145 23 99 49 329 42 367 -4 20 -18 47 -31 60 -14 13 -25 29
-25 37 0 8 10 4 27 -13 32 -32 36 -29 22 15 -18 56 -31 78 -51 85 -15 4 -18
12 -13 35 4 18 3 29 -4 29 -6 0 -11 -18 -11 -40 0 -29 4 -40 15 -40 18 0 21
-46 3 -52 -10 -4 -10 -10 0 -32 14 -32 16 -76 3 -76 -6 0 -13 21 -17 46 -6 45
-7 46 -20 23 -9 -18 -9 -27 -1 -37 8 -10 7 -16 -4 -22 -10 -7 -16 -3 -23 13
-5 12 -8 27 -8 32 2 12 -39 11 -75 0 -13 -4 -20 -11 -17 -16 3 -5 2 -14 -1
-19 -9 -15 -45 7 -47 28 -1 9 -5 -93 -9 -228 -4 -167 -13 -288 -28 -380 -22
-143 -26 -201 -13 -198 4 0 14 -2 22 -5 8 -4 33 -11 55 -16 l40 -10 -56 1
c-73 2 -82 -5 -74 -54 6 -35 4 -43 -20 -68 -15 -16 -24 -33 -21 -39 5 -7 52
-11 127 -11 l119 0 14 33 c31 72 40 115 26 132 -8 9 -8 15 -2 15 6 0 17 -9 25
-20 14 -21 15 -21 19 4 6 30 2 36 -24 36 -21 0 -24 20 -6 38 16 16 33 15 50
-1 7 -7 41 -21 76 -31 54 -15 70 -16 119 -5 31 7 71 23 90 36 19 13 36 23 39
23 2 0 -3 -16 -11 -36 -19 -45 -54 -77 -122 -110 -48 -22 -69 -44 -42 -44 5 0
-2 -16 -17 -35 l-26 -35 25 0 c64 0 176 72 238 156 36 47 44 53 50 37 10 -27
56 -63 108 -85 25 -10 59 -26 76 -35 27 -15 78 -23 168 -26 20 -1 37 -5 37 -9
0 -4 8 -8 19 -8 10 0 38 -10 62 -23 46 -24 144 -48 165 -40 29 11 22 43 -20
78 -45 39 -40 45 15 16 l36 -19 -4 22 c-3 12 -17 27 -31 34 -35 16 -122 95
-122 110 0 7 -9 21 -21 33 -23 23 -18 39 6 19 9 -8 15 -8 15 -2 0 6 -4 13 -9
16 -14 9 -91 124 -91 137 0 5 -5 20 -12 32 -6 12 -13 42 -15 67 -2 25 -7 56
-12 70 -4 14 -5 34 0 45 6 15 8 11 8 -17 1 -48 21 -50 21 -4 0 19 5 38 10 41
6 4 8 11 5 16 -4 5 -4 9 -1 9 10 0 45 -86 74 -185 45 -149 61 -185 135 -310
31 -52 46 -69 41 -50 -4 17 -12 37 -19 45 -7 8 -24 42 -39 75 -15 33 -31 68
-36 77 -5 10 -7 25 -3 34 4 10 2 15 -4 11 -11 -7 -31 37 -62 132 -21 64 -21
100 -1 45 6 -16 19 -35 28 -42 12 -9 14 -15 5 -20 -9 -5 -3 -15 18 -32 17 -14
45 -45 62 -70 17 -25 53 -67 80 -95 l49 -50 -48 60 c-91 115 -149 224 -158
300 -1 6 -19 46 -39 89 -31 64 -37 89 -35 130 3 64 6 70 26 54 14 -11 14 -9
-1 15 -10 15 -15 32 -11 38 4 8 9 7 15 -2 15 -25 17 -4 3 36 -16 47 -18 81 -4
90 13 8 6 78 -8 83 -7 2 -12 12 -12 22 0 18 11 19 198 19 143 0 219 5 275 17
43 8 81 13 84 11 21 -22 24 -349 4 -424 -7 -24 -12 -122 -12 -232 -1 -159 -3
-189 -15 -184 -10 4 -14 -4 -14 -30 0 -19 -7 -40 -15 -47 -8 -7 -15 -16 -15
-21 0 -5 7 -6 15 -3 11 5 15 -1 15 -20 0 -23 22 -69 40 -86 3 -3 13 -17 23
-32 9 -15 28 -30 42 -34 14 -3 25 -9 25 -13 0 -6 39 -25 77 -35 11 -4 40 -22
64 -41 24 -18 46 -32 51 -29 4 3 18 -2 31 -11 25 -16 62 -11 51 7 -4 6 0 14 7
19 21 13 32 11 25 -7 -3 -8 -2 -12 4 -9 6 3 10 13 10 21 0 23 44 16 70 -11 27
-29 45 -32 54 -9 8 21 8 21 -7 36 -7 7 -17 32 -23 55 -9 34 -8 45 2 54 11 9
11 17 0 44 -15 35 -12 113 5 130 5 5 9 22 9 37 0 15 4 28 8 28 4 0 16 20 26
45 32 75 52 57 46 -43 -1 -17 1 -32 4 -32 3 0 13 15 22 32 9 18 20 35 23 38 4
3 13 20 20 38 22 54 36 38 55 -67 20 -108 18 -127 -21 -243 -22 -65 -24 -82
-15 -103 7 -14 12 -57 12 -96 l0 -69 385 0 385 1 0 27 c0 16 -5 33 -12 40 -7
7 -8 12 -2 12 12 0 17 67 7 83 -10 16 -12 67 -2 61 12 -7 11 -2 -5 32 -11 22
-12 41 -6 76 10 51 11 93 8 375 -1 106 1 196 5 200 15 14 28 -15 30 -63 1 -27
1 -128 0 -224 0 -96 2 -275 4 -397 l4 -223 60 0 60 0 -2 120 c-1 117 -1 119
-21 109 -16 -8 -23 -8 -29 2 -7 11 -9 11 -9 1 0 -9 -6 -8 -24 3 -25 17 -26 45
-1 65 9 7 11 36 9 99 -5 97 6 141 33 142 11 0 13 3 6 6 -7 2 -13 9 -13 15 0 6
11 3 25 -6 l25 -16 0 117 c0 109 -1 116 -17 101 -12 -13 -14 -20 -5 -30 8 -10
7 -27 -3 -63 -7 -28 -14 -42 -14 -33 -1 9 -6 18 -11 20 -7 2 -7 27 1 78 14 84
28 114 40 83 4 -10 8 108 8 262 l1 280 -34 -38 c-22 -24 -37 -34 -41 -27 -12
20 4 55 34 72 40 22 43 47 39 363 -3 251 -4 260 -23 263 -42 7 -51 12 -35 22
12 7 12 11 -1 26 -13 16 -12 17 8 12 16 -4 20 -2 16 8 -3 8 0 14 6 14 6 0 11
5 11 10 0 6 -11 10 -25 10 -14 0 -25 4 -25 9 0 21 31 81 47 89 12 7 18 27 21
76 l4 66 -35 0 c-34 0 -35 1 -27 28 5 15 12 40 17 56 11 40 27 35 34 -11 3
-21 7 331 7 782 1 804 -8 1026 -23 550 -7 -224 -20 -438 -23 -387 -2 22 -17
28 -39 14 -11 -7 -18 -36 -22 -85 -1 -5 -6 -5 -13 -1 -11 7 -8 224 9 587 l6
137 -416 0 c-398 -1 -415 -2 -420 -20z m123 6 c0 -3 -4 -8 -10 -11 -5 -3 -10
-1 -10 4 0 6 5 11 10 11 6 0 10 -2 10 -4z m-920 -108 c0 -22 -8 -23 -32 -2
-17 16 -17 18 0 30 19 14 32 3 32 -28z m-178 15 c5 9 10 9 18 1 9 -9 9 -14 1
-18 -6 -4 -11 -27 -11 -52 0 -39 -3 -46 -27 -55 -31 -12 -43 0 -43 46 0 17 -7
40 -15 51 -19 28 -12 33 33 23 25 -5 39 -4 44 4z m-102 -23 c24 -48 30 -87 17
-113 -6 -15 -15 -27 -18 -27 -8 0 -29 72 -29 97 0 11 -7 26 -15 33 -8 7 -12
17 -9 22 9 13 46 5 54 -12z m1185 -40 c3 -5 1 -10 -4 -10 -6 0 -11 5 -11 10 0
6 2 10 4 10 3 0 8 -4 11 -10z m-885 -219 c0 -12 -20 -25 -27 -18 -7 7 6 27 18
27 5 0 9 -4 9 -9z m-970 -55 c0 -2 -7 -9 -15 -16 -13 -11 -14 -10 -9 4 5 14
24 23 24 12z m95 -86 c-3 -5 -12 -10 -18 -10 -7 0 -6 4 3 10 19 12 23 12 15 0z
m209 -26 c21 -8 20 -20 -4 -47 -14 -14 -30 -21 -49 -19 -19 2 -30 -2 -34 -12
-4 -9 -12 -16 -19 -16 -7 0 10 23 37 50 27 28 50 50 51 50 1 0 9 -3 18 -6z
m1526 -4 c0 -5 -7 -10 -16 -10 -8 0 -12 5 -9 10 3 6 10 10 16 10 5 0 9 -4 9
-10z m-1705 -49 c-3 -6 -11 -11 -17 -11 -6 0 -6 6 2 15 14 17 26 13 15 -4z
m1694 10 c7 -5 9 -11 5 -14 -5 -3 -15 1 -22 9 -14 16 -5 18 17 5z m-1691 -61
c-7 -11 -17 -20 -22 -20 -5 0 -1 9 9 20 10 11 20 20 22 20 2 0 -2 -9 -9 -20z
m242 -54 c0 -3 -4 -8 -10 -11 -5 -3 -10 -1 -10 4 0 6 5 11 10 11 6 0 10 -2 10
-4z m0 -56 c0 -5 -5 -10 -11 -10 -5 0 -7 5 -4 10 3 6 8 10 11 10 2 0 4 -4 4
-10z m-1225 -40 c3 -5 2 -10 -4 -10 -5 0 -13 5 -16 10 -3 6 -2 10 4 10 5 0 13
-4 16 -10z m3495 -132 c0 -68 -5 -211 -10 -318 -6 -107 -15 -337 -20 -510 -6
-173 -15 -423 -20 -555 -5 -132 -10 -307 -11 -390 0 -82 -4 -168 -8 -190 -8
-48 -35 -60 -45 -20 -8 31 -9 570 -1 730 3 61 7 313 11 560 6 499 17 764 31
774 5 3 12 14 16 24 4 10 17 17 32 17 l25 0 0 -122z m-844 96 c-3 -9 -6 -18
-6 -20 0 -2 -4 -4 -9 -4 -5 0 -7 9 -4 20 3 11 10 20 15 20 6 0 7 -7 4 -16z
m-1653 -139 c-5 -13 -23 -22 -23 -11 0 15 14 35 21 31 4 -3 6 -12 2 -20z m37
-290 c8 -108 1 -148 -20 -115 -7 11 -10 6 -10 -20 0 -25 -3 -31 -11 -23 -16
16 -38 118 -28 134 4 8 11 51 14 94 4 44 9 84 12 88 14 23 36 -58 43 -158z
m890 84 c0 -5 -4 -9 -10 -9 -5 0 -10 7 -10 16 0 8 5 12 10 9 6 -3 10 -10 10
-16z m-1605 -9 c4 -6 -7 -10 -27 -10 -25 0 -29 3 -18 10 19 13 37 13 45 0z
m1440 -70 c3 -5 1 -10 -4 -10 -6 0 -11 5 -11 10 0 6 2 10 4 10 3 0 8 -4 11
-10z m-320 -120 c-3 -5 -12 -10 -18 -10 -7 0 -6 4 3 10 19 12 23 12 15 0z
m-1212 -82 c15 2 27 -1 27 -6 0 -6 -22 -10 -48 -10 -27 -1 -55 -2 -62 -4 -8
-2 -15 4 -17 13 -3 13 2 15 22 12 17 -4 25 -1 25 8 1 11 3 11 13 -1 7 -9 24
-14 40 -12z m-173 2 c0 -5 -7 -10 -16 -10 -8 0 -12 5 -9 10 3 6 10 10 16 10 5
0 9 -4 9 -10z m-55 -19 c-4 -13 0 -23 12 -30 15 -8 15 -10 2 -11 -8 0 -24 6
-34 14 -16 12 -17 16 -6 30 18 22 34 20 26 -3z m310 9 c3 -5 -3 -10 -14 -10
-12 0 -21 5 -21 10 0 6 6 10 14 10 8 0 18 -4 21 -10z m2975 -9 c-13 -11 -28
-17 -33 -14 -13 8 14 33 37 33 20 0 20 -1 -4 -19z m-2892 2 c-10 -2 -26 -2
-35 0 -10 3 -2 5 17 5 19 0 27 -2 18 -5z m-274 -18 c3 -9 0 -15 -9 -15 -8 0
-15 4 -15 9 0 5 -10 7 -22 3 -12 -3 -19 -1 -15 4 9 16 55 15 61 -1z m61 -5
c-3 -5 -14 -10 -23 -10 -15 0 -15 2 -2 10 20 13 33 13 25 0z m225 1 c0 -5 -7
-12 -16 -15 -14 -5 -15 -4 -4 9 14 17 20 19 20 6z m2921 -8 c-5 -10 -13 -27
-17 -38 -7 -19 -8 -19 -12 3 -5 31 4 52 23 52 11 0 13 -4 6 -17z m-3101 -13
c0 -5 -6 -10 -14 -10 -8 0 -18 5 -21 10 -3 6 3 10 14 10 12 0 21 -4 21 -10z
m40 -6 c0 -8 -5 -12 -10 -9 -6 4 -8 11 -5 16 9 14 15 11 15 -7z m2961 -27 c-8
-8 -11 -7 -11 4 0 20 13 34 18 19 3 -7 -1 -17 -7 -23z m-2166 13 c3 -5 1 -10
-4 -10 -6 0 -11 5 -11 10 0 6 2 10 4 10 3 0 8 -4 11 -10z m2250 -114 c12 3 26
1 29 -4 12 -19 -15 -24 -60 -11 -39 12 -42 15 -22 20 12 3 24 2 26 -3 2 -4 14
-5 27 -2z m-1675 -66 c0 -5 -5 -10 -11 -10 -5 0 -7 5 -4 10 3 6 8 10 11 10 2
0 4 -4 4 -10z m139 -42 c9 -25 -3 -48 -25 -48 -18 0 -23 11 -17 43 6 33 30 36
42 5z m-1204 -478 c-3 -4 0 -10 6 -12 6 -2 8 -14 4 -31 l-7 -27 -18 23 c-38
49 -42 65 -23 93 l17 27 13 -32 c8 -18 11 -36 8 -41z m-69 -45 c-2 -44 -21
-66 -31 -36 -6 18 16 71 29 71 1 0 2 -16 2 -35z m2772 -35 l27 -1 -25 -13
c-17 -10 -30 -11 -42 -5 -22 12 -24 33 -2 25 9 -3 28 -6 42 -6z m-2546 -117
c-5 -10 -17 -36 -27 -58 -10 -22 -19 -54 -19 -72 -1 -17 -4 -29 -8 -27 -10 6
-40 -59 -30 -65 12 -8 15 -91 3 -91 -9 0 -16 32 -26 109 -2 18 -8 38 -13 45
-12 15 -9 140 3 144 6 1 11 -9 13 -23 5 -37 33 -31 65 15 29 41 53 55 39 23z
m78 -8 c0 -5 -51 -98 -58 -105 -7 -8 9 41 25 78 13 27 33 44 33 27z m1935 -35
c3 -5 1 -10 -4 -10 -6 0 -11 5 -11 10 0 6 2 10 4 10 3 0 8 -4 11 -10z m325
-97 c0 -21 -3 -24 -9 -14 -5 8 -7 20 -4 28 8 21 13 15 13 -14z m-2333 8 c10 9
13 8 13 -5 0 -9 -5 -16 -11 -16 -7 0 -9 -11 -6 -29 8 -41 -4 -47 -20 -10 -17
41 -18 78 -1 61 8 -8 15 -9 25 -1z m2333 -91 c0 -27 -4 -50 -10 -50 -11 0 -14
83 -3 93 12 12 13 8 13 -43z m-2380 36 c0 -3 -4 -8 -10 -11 -5 -3 -10 -1 -10
4 0 6 5 11 10 11 6 0 10 -2 10 -4z m60 -85 c0 -11 5 -23 10 -26 6 -3 10 -11
10 -16 0 -6 -4 -8 -9 -4 -5 3 -12 -3 -14 -12 -3 -10 -5 -4 -5 12 1 17 -3 38
-7 48 -4 10 -3 17 4 17 6 0 11 -9 11 -19z m1954 -76 c50 -83 77 -178 59 -210
-10 -17 -13 -14 -22 25 -6 25 -16 53 -21 62 -6 10 -10 25 -10 33 0 9 -10 29
-21 44 -12 16 -19 34 -15 39 3 5 -1 13 -10 16 -9 3 -14 13 -10 21 3 8 1 17 -4
20 -6 4 -10 13 -10 21 0 25 17 7 64 -71z m-1997 43 c-3 -7 -5 -2 -5 12 0 14 2
19 5 13 2 -7 2 -19 0 -25z m-30 0 c-3 -8 -6 -5 -6 6 -1 11 2 17 5 13 3 -3 4
-12 1 -19z m2388 13 c3 -5 1 -12 -5 -16 -5 -3 -10 1 -10 9 0 18 6 21 15 7z
m-1870 -79 c-9 -9 -25 19 -24 43 0 16 2 15 15 -8 9 -16 13 -32 9 -35z m-535
28 c0 -5 -2 -10 -4 -10 -3 0 -8 5 -11 10 -3 6 -1 10 4 10 6 0 11 -4 11 -10z
m2877 -36 c-3 -3 -12 -4 -19 -1 -8 3 -5 6 6 6 11 1 17 -2 13 -5z m-850 -119
c44 -105 54 -153 40 -197 -6 -21 -17 -38 -23 -38 -14 0 -31 41 -40 99 -3 25
-15 70 -25 100 -12 35 -16 57 -9 59 5 2 10 13 10 24 0 35 22 14 47 -47z m823
16 c0 -12 -20 -25 -27 -18 -7 7 6 27 18 27 5 0 9 -4 9 -9z m-2160 -75 c0 -18
-17 8 -24 34 l-7 25 15 -25 c9 -14 15 -29 16 -34z m1890 50 c0 -2 3 -11 6 -19
7 -19 -52 -35 -68 -19 -19 19 0 42 32 42 16 0 30 -2 30 -4z m-103 -23 c2 -6
-3 -13 -11 -16 -10 -4 -14 0 -13 14 1 20 18 21 24 2z m276 -6 c3 -8 1 -20 -4
-28 -6 -10 -9 -7 -9 14 0 29 5 35 13 14z m-2133 -208 c0 -5 -4 -9 -10 -9 -5 0
-10 7 -10 16 0 8 5 12 10 9 6 -3 10 -10 10 -16z m-486 -111 c8 -81 8 -73 -4
-148 -17 -117 -56 -161 -143 -163 -29 -1 -67 1 -84 5 -45 9 -123 39 -123 48 0
12 192 186 257 233 17 11 41 36 53 54 12 18 26 33 30 33 4 0 10 -28 14 -62z
m-1213 -1 c-10 -9 -11 -8 -5 6 3 10 9 15 12 12 3 -3 0 -11 -7 -18z m807 -374
c-10 -2 -26 -2 -35 0 -10 3 -2 5 17 5 19 0 27 -2 18 -5z"/>
<path d="M2608 3972 c-3 -11 -2 -25 2 -32 5 -8 9 -5 12 8 3 11 2 25 -2 32 -5
8 -9 5 -12 -8z"/>
<path d="M274 3965 c25 -19 37 -19 30 0 -4 8 -16 15 -28 15 -21 -1 -21 -1 -2
-15z"/>
<path d="M160 3931 c0 -11 5 -23 10 -26 6 -4 10 5 10 19 0 14 -4 26 -10 26 -5
0 -10 -9 -10 -19z"/>
<path d="M2 3875 c0 -16 2 -22 5 -12 2 9 2 23 0 30 -3 6 -5 -1 -5 -18z"/>
<path d="M2600 3875 c-10 -13 -9 -15 9 -15 11 0 21 4 21 9 0 18 -18 21 -30 6z"/>
<path d="M2345 3860 c3 -5 10 -10 16 -10 5 0 9 5 9 10 0 6 -7 10 -16 10 -8 0
-12 -4 -9 -10z"/>
<path d="M3953 3725 c0 -27 2 -38 4 -22 2 15 2 37 0 50 -2 12 -4 0 -4 -28z"/>
<path d="M22 3720 c0 -14 2 -19 5 -12 2 6 2 18 0 25 -3 6 -5 1 -5 -13z"/>
<path d="M1575 3661 c-9 -9 -46 -18 -82 -20 -7 -1 -13 -5 -13 -9 0 -5 15 -6
32 -4 30 5 32 3 19 -12 -12 -14 -11 -16 4 -16 13 0 16 -6 12 -26 -3 -19 -1
-24 10 -19 11 3 13 1 9 -10 -6 -16 24 -20 58 -6 18 7 18 8 2 14 -9 4 -14 11
-11 17 3 5 3 10 -2 10 -4 0 -13 11 -20 25 -10 22 -9 25 9 25 28 0 110 -22 104
-28 -3 -3 2 -11 11 -17 12 -9 23 -10 40 -2 26 12 31 27 8 27 -8 0 -15 4 -15 9
0 6 -21 13 -47 17 -27 4 -50 11 -53 15 -9 14 -64 21 -75 10z"/>
<path d="M2148 3653 c6 -2 18 -2 25 0 6 3 1 5 -13 5 -14 0 -19 -2 -12 -5z"/>
<path d="M40 3588 c0 -9 -6 -19 -12 -21 -8 -3 -7 -6 4 -6 22 -1 33 18 19 32
-8 8 -11 7 -11 -5z"/>
<path d="M2550 3575 c-11 -13 -7 -15 29 -15 22 0 41 5 41 11 0 5 -8 9 -17 7
-10 -1 -23 1 -29 5 -7 4 -17 0 -24 -8z"/>
<path d="M1747 3540 c10 -11 26 -20 36 -20 16 0 17 -3 7 -15 -7 -8 -8 -15 -3
-15 5 0 16 -11 23 -25 8 -16 22 -25 37 -25 32 0 29 18 -7 38 -33 19 -40 42
-12 42 11 0 6 7 -16 20 -18 11 -44 20 -57 20 -24 0 -24 -1 -8 -20z"/>
<path d="M3040 3534 c0 -8 5 -12 10 -9 6 4 8 11 5 16 -9 14 -15 11 -15 -7z"/>
<path d="M1433 3523 c-15 -5 -17 -23 -4 -23 5 0 11 7 15 15 3 8 4 15 3 14 -1
0 -8 -3 -14 -6z"/>
<path d="M2500 3520 c0 -5 7 -10 16 -10 8 0 12 5 9 10 -3 6 -10 10 -16 10 -5
0 -9 -4 -9 -10z"/>
<path d="M65 3480 c23 -202 24 -222 15 -240 -13 -24 -13 -33 0 -25 6 3 13 -1
16 -9 3 -9 14 -16 24 -16 17 0 18 2 4 28 -7 15 -14 41 -14 58 0 17 -3 34 -7
38 -4 3 -9 28 -11 54 -2 26 -10 72 -18 102 -14 54 -14 54 -9 10z"/>
<path d="M2537 3496 c-13 -10 -15 -16 -6 -21 10 -7 28 10 29 28 0 9 -2 9 -23
-7z"/>
<path d="M1470 3440 c0 -5 5 -10 10 -10 6 0 10 5 10 10 0 6 -4 10 -10 10 -5 0
-10 -4 -10 -10z"/>
<path d="M1680 3415 c-7 -9 -10 -18 -7 -21 3 -3 10 4 17 15 13 25 8 27 -10 6z"/>
<path d="M137 3363 c-4 -3 -7 -15 -7 -26 0 -16 3 -17 15 -7 8 7 15 19 15 26 0
15 -12 19 -23 7z"/>
<path d="M172 3340 c-31 -13 -46 -49 -33 -80 10 -24 10 -24 16 -4 4 11 20 28
36 38 47 27 31 65 -19 46z"/>
<path d="M35 3200 c-3 -5 -1 -10 4 -10 6 0 11 5 11 10 0 6 -2 10 -4 10 -3 0
-8 -4 -11 -10z"/>
<path d="M3020 3159 c0 -5 5 -7 10 -4 6 3 10 8 10 11 0 2 -4 4 -10 4 -5 0 -10
-5 -10 -11z"/>
<path d="M3022 3109 c2 -7 10 -15 17 -17 8 -3 12 1 9 9 -2 7 -10 15 -17 17 -8
3 -12 -1 -9 -9z"/>
<path d="M3390 2985 c-1 -5 -3 -20 -6 -32 -2 -13 0 -23 5 -23 17 0 21 17 12
42 -6 12 -10 19 -11 13z"/>
<path d="M3195 2881 c-3 -5 -1 -12 4 -15 5 -3 11 1 15 9 6 16 -9 21 -19 6z"/>
<path d="M3390 2754 c0 -8 5 -12 10 -9 6 3 10 10 10 16 0 5 -4 9 -10 9 -5 0
-10 -7 -10 -16z"/>
<path d="M3380 2710 c0 -5 4 -10 9 -10 6 0 13 5 16 10 3 6 -1 10 -9 10 -9 0
-16 -4 -16 -10z"/>
<path d="M3505 2700 c-3 -5 -1 -10 4 -10 6 0 11 5 11 10 0 6 -2 10 -4 10 -3 0
-8 -4 -11 -10z"/>
<path d="M3380 2653 c0 -18 5 -33 10 -33 6 0 10 6 10 13 0 6 3 21 6 33 4 14 1
21 -10 21 -11 0 -16 -10 -16 -34z"/>
<path d="M3110 2560 c-13 -8 -13 -10 2 -10 9 0 20 5 23 10 8 13 -5 13 -25 0z"/>
<path d="M3055 2550 c-3 -5 1 -10 9 -10 8 0 18 5 21 10 3 6 -1 10 -9 10 -8 0
-18 -4 -21 -10z"/>
<path d="M2985 2526 c13 -9 18 -25 17 -51 -2 -44 -8 -53 -24 -37 -15 15 -38
16 -38 1 0 -6 7 -9 14 -6 10 4 13 1 9 -9 -3 -7 -10 -14 -17 -14 -6 -1 1 -7 16
-16 15 -8 34 -27 42 -42 11 -20 15 -22 16 -9 0 10 7 20 15 23 8 4 15 17 15 30
0 26 28 46 63 43 42 -4 57 1 57 19 0 29 -21 42 -71 42 -31 0 -55 6 -72 20 -14
11 -33 20 -43 20 -17 0 -17 -1 1 -14z"/>
<path d="M3379 2463 c-1 -21 -3 -64 -4 -95 -2 -43 1 -58 10 -58 10 0 13 14 10
55 -1 30 0 57 4 59 10 7 1 76 -10 76 -5 0 -10 -17 -10 -37z"/>
<path d="M3210 2450 c0 -5 5 -10 10 -10 6 0 10 5 10 10 0 6 -4 10 -10 10 -5 0
-10 -4 -10 -10z"/>
<path d="M3511 2354 c0 -11 3 -14 6 -6 3 7 2 16 -1 19 -3 4 -6 -2 -5 -13z"/>
<path d="M3390 1945 c0 -8 2 -15 4 -15 2 0 6 7 10 15 3 8 1 15 -4 15 -6 0 -10
-7 -10 -15z"/>
<path d="M3390 1649 c0 -5 5 -7 10 -4 6 3 10 8 10 11 0 2 -4 4 -10 4 -5 0 -10
-5 -10 -11z"/>
<path d="M3370 1578 c0 -16 4 -28 9 -28 18 0 20 17 6 36 -14 18 -14 18 -15 -8z"/>
<path d="M3369 1487 c-2 -27 -1 -51 3 -53 5 -3 8 -12 8 -20 0 -8 -4 -13 -8
-10 -4 2 -6 -11 -4 -30 2 -18 8 -31 14 -28 5 3 7 13 3 22 -3 8 0 19 6 23 8 5
8 16 -1 45 -10 28 -10 39 -1 42 6 2 11 8 11 13 0 6 -4 8 -9 4 -5 -3 -11 5 -13
17 -2 13 -6 1 -9 -25z"/>
<path d="M3405 1360 c-3 -5 -2 -10 4 -10 5 0 13 5 16 10 3 6 2 10 -4 10 -5 0
-13 -4 -16 -10z"/>
<path d="M3398 1313 c7 -3 16 -2 19 1 4 3 -2 6 -13 5 -11 0 -14 -3 -6 -6z"/>
<path d="M3980 515 c0 -8 2 -15 4 -15 2 0 6 7 10 15 3 8 1 15 -4 15 -6 0 -10
-7 -10 -15z"/>
<path d="M3985 300 c-3 -5 -1 -18 4 -27 9 -16 10 -14 11 10 0 28 -5 34 -15 17z"/>
<path d="M600 258 c0 -7 -3 -24 -6 -38 l-5 -25 15 25 c18 29 20 50 6 50 -5 0
-10 -6 -10 -12z"/>
<path d="M2040 212 c0 -12 19 -26 26 -19 2 2 -2 10 -11 17 -9 8 -15 8 -15 2z"/>
<path d="M576 109 c-3 -17 -6 -49 -6 -70 l0 -39 110 0 c123 0 112 -8 124 88
l6 42 -99 0 c-55 0 -106 2 -114 6 -10 3 -16 -4 -21 -27z"/>
</g>
</svg>
